<svg width="200" height="200" viewBox="0 0 200 200" fill="none" xmlns="http://www.w3.org/2000/svg">
<path d="M1.7025 98.3062C0.770432 98.2902 0.0263672 97.5215 0.0581665 96.5898C0.0899506 95.6581 0.884674 94.942 1.81567 94.9895L19.3163 95.8826C20.056 95.9203 20.6238 96.5505 20.5986 97.2907C20.5733 98.0309 19.9639 98.6209 19.2233 98.6081L1.7025 98.3062Z" fill="white" fill-opacity="0.24"/>
<path d="M1.91454 93.3284C0.984482 93.2651 0.280319 92.4597 0.359283 91.5309C0.438232 90.602 1.26822 89.927 2.1956 90.0216L19.6286 91.8002C20.3653 91.8754 20.9005 92.5335 20.8378 93.2715C20.7751 94.0094 20.1365 94.5678 19.3976 94.5175L1.91454 93.3284Z" fill="white" fill-opacity="0.24"/>
<path d="M2.42842 87.9561C1.50325 87.8419 0.844345 86.9991 0.974136 86.0759C1.10394 85.1528 1.96973 84.5244 2.89052 84.6697L20.1996 87.4023C20.9312 87.5177 21.4294 88.2043 21.3263 88.9377C21.2232 89.6711 20.5549 90.1936 19.8199 90.1028L2.42842 87.9561Z" fill="white" fill-opacity="0.24"/>
<path d="M3.2117 82.7578C2.29395 82.5943 1.68103 81.7175 1.85999 80.8026C2.03896 79.8878 2.93709 79.3065 3.8488 79.5009L20.9871 83.1547C21.7114 83.3091 22.1723 84.0213 22.0301 84.7481C21.8879 85.475 21.1927 85.961 20.4635 85.8311L3.2117 82.7578Z" fill="white" fill-opacity="0.24"/>
<path d="M4.32651 77.3759C3.41933 77.1614 2.85637 76.2516 3.08618 75.3482C3.31598 74.4448 4.24519 73.9146 5.14462 74.1596L22.0519 78.7655C22.7665 78.9602 23.1868 79.697 23.0042 80.4147C22.8217 81.1325 22.1004 81.5789 21.3796 81.4085L4.32651 77.3759Z" fill="white" fill-opacity="0.24"/>
<path d="M5.69434 72.2203C4.80013 71.9569 4.28734 71.018 4.56581 70.1284C4.84427 69.2387 5.80087 68.7597 6.68568 69.0532L23.3183 74.5692C24.0213 74.8024 24.401 75.5609 24.1798 76.2677C23.9585 76.9745 23.2141 77.3811 22.5037 77.1719L5.69434 72.2203Z" fill="white" fill-opacity="0.24"/>
<path d="M7.3797 67.0342C6.50146 66.7216 6.04152 65.7557 6.3689 64.8828C6.69626 64.01 7.67793 63.5848 8.54512 63.9268L24.8463 70.3566C25.5353 70.6284 25.8724 71.4068 25.6123 72.1002C25.3522 72.7937 24.5863 73.1584 23.8886 72.9101L7.3797 67.0342Z" fill="white" fill-opacity="0.24"/>
<path d="M9.28166 62.1126C8.42146 61.7534 8.01401 60.7642 8.38773 59.9102C8.76144 59.0562 9.76453 58.6843 10.6121 59.0723L26.5449 66.3674C27.2183 66.6757 27.5131 67.4711 27.2162 68.1496C26.9193 68.8281 26.135 69.1512 25.4516 68.8658L9.28166 62.1126Z" fill="white" fill-opacity="0.24"/>
<path d="M11.4639 57.261C10.6244 56.8558 10.271 55.846 10.6904 55.0134C11.1098 54.1809 12.1315 53.8637 12.9568 54.2971L28.4717 62.4433C29.1274 62.7876 29.3788 63.5978 29.0456 64.2592C28.7124 64.9207 27.9118 65.2009 27.2448 64.8789L11.4639 57.261Z" fill="white" fill-opacity="0.24"/>
<path d="M13.9376 52.4759C13.1216 52.0253 12.8241 50.9977 13.2884 50.1894C13.7527 49.381 14.7903 49.1203 15.5907 49.5983L30.6361 58.582C31.2719 58.9617 31.4786 59.7844 31.1097 60.4266C30.7408 61.0688 29.926 61.3048 29.2776 60.9468L13.9376 52.4759Z" fill="white" fill-opacity="0.24"/>
<path d="M16.8574 47.535C16.069 47.0375 15.832 45.9943 16.3427 45.2144C16.8534 44.4346 17.9044 44.2349 18.6756 44.7587L33.1711 54.605C33.7837 55.0212 33.942 55.8546 33.5363 56.4741C33.1305 57.0937 32.3033 57.2817 31.677 56.8865L16.8574 47.535Z" fill="white" fill-opacity="0.24"/>
<path d="M20.1464 42.6531C19.3892 42.1093 19.215 41.0538 19.7715 40.3059C20.328 39.558 21.3891 39.4215 22.1274 39.9906L36.0077 50.6868C36.5943 51.1389 36.7025 51.9802 36.2603 52.5744C35.8182 53.1686 34.9813 53.3068 34.3797 52.8748L20.1464 42.6531Z" fill="white" fill-opacity="0.24"/>
<path d="M23.5283 38.2153C22.8032 37.6295 22.6892 36.5657 23.2872 35.8506C23.8852 35.1355 24.9523 35.0595 25.6572 35.6695L38.9083 47.1359C39.4683 47.6206 39.5286 48.4667 39.0535 49.0348C38.5784 49.603 37.7349 49.6934 37.1588 49.228L23.5283 38.2153Z" fill="white" fill-opacity="0.24"/>
<path d="M26.7791 34.3954C26.0848 33.7734 26.0251 32.7052 26.6588 32.0215C27.2925 31.3378 28.3621 31.3163 29.035 31.9615L41.6841 44.0889C42.2186 44.6014 42.2356 45.4495 41.7322 45.9927C41.2287 46.5359 40.3818 46.5832 39.8302 46.089L26.7791 34.3954Z" fill="white" fill-opacity="0.24"/>
<path d="M30.4829 30.4828C29.8237 29.8237 29.8227 28.7539 30.4929 28.1059C31.1631 27.458 32.2323 27.4951 32.8688 28.1761L44.8345 40.9782C45.3402 41.5193 45.3107 42.3671 44.7782 42.8818C44.2458 43.3966 43.3975 43.3975 42.8738 42.8738L30.4829 30.4828Z" fill="white" fill-opacity="0.24"/>
<path d="M34.3513 26.8186C33.7288 26.1247 33.7858 25.0564 34.4901 24.4457C35.1944 23.835 36.26 23.93 36.8587 24.6446L48.1132 38.0761C48.5889 38.6438 48.5135 39.4887 47.9539 39.9739C47.3943 40.4591 46.5473 40.414 46.0527 39.8627L34.3513 26.8186Z" fill="white" fill-opacity="0.24"/>
<path d="M38.4922 23.3054C37.909 22.5782 38.0248 21.5147 38.7618 20.9438C39.4987 20.373 40.5574 20.5266 41.1158 21.2731L51.6115 35.3057C52.0551 35.8987 51.9332 36.7382 51.3477 37.1917C50.7622 37.6453 49.9189 37.5535 49.4555 36.9757L38.4922 23.3054Z" fill="white" fill-opacity="0.24"/>
<path d="M43.1323 19.8044C42.593 19.044 42.7715 17.9892 43.541 17.4629C44.3104 16.9366 45.3582 17.1526 45.8714 17.9307L55.5195 32.559C55.9272 33.1773 55.7559 34.0081 55.1446 34.4262C54.5333 34.8443 53.6969 34.7029 53.2685 34.0987L43.1323 19.8044Z" fill="white" fill-opacity="0.24"/>
<path d="M47.9674 16.5861C47.474 15.7952 47.7145 14.7528 48.5136 14.2728C49.3128 13.7928 50.346 14.0703 50.8124 14.8775L59.5797 30.05C59.9503 30.6912 59.7302 31.5104 59.0953 31.8918C58.4604 32.2731 57.6338 32.0825 57.2418 31.4541L47.9674 16.5861Z" fill="white" fill-opacity="0.24"/>
<path d="M52.5664 13.8877C52.1167 13.0712 52.4133 12.0433 53.2373 11.6074C54.0613 11.1715 55.0779 11.5046 55.4999 12.3358L63.4317 27.9613C63.767 28.6217 63.5028 29.4278 62.8481 29.7742C62.1935 30.1205 61.3785 29.8853 61.0211 29.2366L52.5664 13.8877Z" fill="white" fill-opacity="0.24"/>
<path d="M57.1207 11.5317C56.7141 10.6929 57.0639 9.68187 57.9096 9.2895C58.7552 8.89713 59.7531 9.28278 60.1311 10.1349L67.2375 26.1527C67.5378 26.8297 67.2319 27.6209 66.5601 27.9326C65.8883 28.2444 65.0867 27.967 64.7636 27.3006L57.1207 11.5317Z" fill="white" fill-opacity="0.24"/>
<path d="M61.8393 9.39632C61.4774 8.5372 61.88 7.54603 62.7451 7.19874C63.6102 6.85144 64.5864 7.28911 64.9191 8.15995L71.172 24.5298C71.4363 25.2217 71.0892 25.9957 70.4019 26.2716C69.7146 26.5475 68.9286 26.2283 68.6412 25.5458L61.8393 9.39632Z" fill="white" fill-opacity="0.24"/>
<path d="M66.5307 7.56045C66.2133 6.68392 66.6661 5.71467 67.5479 5.41215C68.4296 5.10963 69.3821 5.59673 69.6697 6.48347L75.0759 23.1521C75.3044 23.8566 74.9181 24.6118 74.2176 24.8522C73.517 25.0925 72.7485 24.7335 72.4963 24.0371L66.5307 7.56045Z" fill="white" fill-opacity="0.24"/>
<path d="M71.3733 5.948C71.1019 5.05619 71.6044 4.11175 72.5006 3.85539C73.3969 3.59904 74.3228 4.13492 74.564 5.03538L79.0978 21.9622C79.2894 22.6776 78.8645 23.4117 78.1524 23.6154C77.4403 23.819 76.6915 23.4206 76.4758 22.7121L71.3733 5.948Z" fill="white" fill-opacity="0.24"/>
<path d="M76.4528 4.54951C76.2295 3.64444 76.7819 2.72827 77.6906 2.5203C78.5993 2.31233 79.4952 2.89704 79.6878 3.80913L83.3083 20.9545C83.4613 21.6791 82.9977 22.3894 82.2757 22.5547C81.5538 22.7199 80.8273 22.2819 80.6499 21.5629L76.4528 4.54951Z" fill="white" fill-opacity="0.24"/>
<path d="M81.491 3.44595C81.3155 2.53041 81.9152 1.64447 82.8336 1.48445C83.7519 1.32442 84.6159 1.95531 84.7604 2.87625L87.4768 20.1879C87.5916 20.9195 87.0913 21.6046 86.3617 21.7317C85.6321 21.8589 84.9296 21.3834 84.7901 20.656L81.491 3.44595Z" fill="white" fill-opacity="0.24"/>
<path d="M86.6789 2.59457C86.5526 1.67097 87.1988 0.818355 88.1244 0.70765C89.05 0.596946 89.8791 1.27312 89.9741 2.20046L91.7612 19.6325C91.8367 20.3693 91.3005 21.0266 90.5651 21.1146C89.8298 21.2025 89.1537 20.6902 89.0533 19.9564L86.6789 2.59457Z" fill="white" fill-opacity="0.24"/>
<path d="M91.9251 2.02008C91.8486 1.09103 92.5396 0.274321 93.4698 0.213446C94.4 0.152571 95.1916 0.872257 95.2367 1.80337L96.0857 19.3062C96.1216 20.046 95.5509 20.6736 94.8119 20.7219C94.0729 20.7703 93.4252 20.2224 93.3644 19.4843L91.9251 2.02008Z" fill="white" fill-opacity="0.24"/>
<path d="M96.9697 1.73462C96.941 0.802857 97.673 0.0227313 98.6052 0.00972847C99.5373 -0.00327438 100.291 0.756128 100.288 1.68833L100.237 19.2117C100.235 19.9523 99.6324 20.5498 98.8918 20.5601C98.1513 20.5704 97.5327 19.99 97.5098 19.2497L96.9697 1.73462Z" fill="white" fill-opacity="0.24"/>
<path d="M101.767 1.7038C101.784 0.771741 102.553 0.0282589 103.485 0.0607469C104.417 0.0932349 105.132 0.888496 105.084 1.81945L104.178 19.3195C104.14 20.0591 103.509 20.6264 102.769 20.6006C102.029 20.5748 101.439 19.9649 101.452 19.2244L101.767 1.7038Z" fill="white" fill-opacity="0.24"/>
<path d="M106.858 1.92737C106.923 0.997433 107.729 0.294803 108.658 0.375514C109.587 0.456225 110.26 1.28749 110.164 2.2147L108.352 19.6442C108.276 20.3809 107.616 20.9148 106.879 20.8507C106.141 20.7866 105.584 20.1469 105.635 19.4081L106.858 1.92737Z" fill="white" fill-opacity="0.24"/>
<path d="M112.021 2.42565C112.135 1.50044 112.978 0.841339 113.901 0.970927C114.824 1.10051 115.453 1.96615 115.308 2.88698L112.579 20.1967C112.464 20.9283 111.778 21.4267 111.044 21.3237C110.311 21.2208 109.788 20.5527 109.879 19.8176L112.021 2.42565Z" fill="white" fill-opacity="0.24"/>
<path d="M117.236 3.21067C117.4 2.29291 118.277 1.67995 119.192 1.85885C120.106 2.03775 120.688 2.93585 120.493 3.84758L116.841 20.9861C116.686 21.7104 115.974 22.1713 115.247 22.0292C114.52 21.887 114.034 21.1918 114.164 20.4627L117.236 3.21067Z" fill="white" fill-opacity="0.24"/>
<path d="M122.144 4.21423C122.354 3.30598 123.261 2.73847 124.165 2.96374C125.07 3.18901 125.605 4.11555 125.364 5.0162L120.843 21.9464C120.652 22.6619 119.917 23.0859 119.199 22.907C118.48 22.728 118.03 22.009 118.197 21.2874L122.144 4.21423Z" fill="white" fill-opacity="0.24"/>
<path d="M127.269 5.54534C127.527 4.64971 128.463 4.13186 129.355 4.4055C130.246 4.67915 130.73 5.63314 130.441 6.51953L125.015 23.1818C124.786 23.886 124.03 24.2698 123.322 24.0524C122.614 23.835 122.203 23.0928 122.408 22.3812L127.269 5.54534Z" fill="white" fill-opacity="0.24"/>
<path d="M132.186 7.10568C132.491 6.22484 133.453 5.7568 134.328 6.07681C135.204 6.39682 135.637 7.37489 135.303 8.24492L129.01 24.5996C128.744 25.2908 127.969 25.6345 127.273 25.3802C126.577 25.126 126.206 24.3632 126.449 23.6634L132.186 7.10568Z" fill="white" fill-opacity="0.24"/>
<path d="M137.145 8.97502C137.497 8.11191 138.483 7.69638 139.34 8.06311C140.197 8.42984 140.577 9.42984 140.196 10.2806L133.031 26.2724C132.728 26.9483 131.935 27.2497 131.254 26.9583C130.574 26.6669 130.244 25.8853 130.524 25.1996L137.145 8.97502Z" fill="white" fill-opacity="0.24"/>
<path d="M141.993 11.1075C142.391 10.2646 143.398 9.9028 144.234 10.3152C145.07 10.7275 145.396 11.7465 144.969 12.5755L136.954 28.1583C136.615 28.8169 135.807 29.0751 135.143 28.7475C134.478 28.4199 134.192 27.6216 134.508 26.952L141.993 11.1075Z" fill="white" fill-opacity="0.24"/>
<path d="M146.808 13.546C147.252 12.7262 148.277 12.4202 149.089 12.8778C149.901 13.3354 150.17 14.3708 149.699 15.1751L140.841 30.2945C140.466 30.9335 139.645 31.147 139 30.7834C138.355 30.4199 138.112 29.6071 138.465 28.9558L146.808 13.546Z" fill="white" fill-opacity="0.24"/>
<path d="M151.096 16.0091C151.58 15.2127 152.62 14.9586 153.408 15.4565C154.196 15.9543 154.413 17.0019 153.902 17.7815L144.294 32.4364C143.888 33.0558 143.057 33.2277 142.431 32.8321C141.805 32.4366 141.604 31.6126 141.988 30.9799L151.096 16.0091Z" fill="white" fill-opacity="0.24"/>
<path d="M155.375 18.7667C155.9 17.9965 156.951 17.7965 157.713 18.3345C158.474 18.8725 158.636 19.9299 158.086 20.682L147.732 34.8199C147.295 35.4174 146.456 35.5461 145.851 35.1187C145.246 34.6913 145.088 33.8579 145.505 33.246L155.375 18.7667Z" fill="white" fill-opacity="0.24"/>
<path d="M159.64 21.8442C160.206 21.1031 161.266 20.9597 161.997 21.5376C162.729 22.1155 162.834 23.1801 162.244 23.9017L151.149 37.4657C150.681 38.039 149.836 38.1226 149.255 37.6635C148.674 37.2043 148.56 36.3637 149.01 35.7749L159.64 21.8442Z" fill="white" fill-opacity="0.24"/>
<path d="M163.735 25.1457C164.339 24.4359 165.405 24.3493 166.105 24.9656C166.804 25.5818 166.853 26.6505 166.225 27.3395L154.421 40.2907C153.922 40.8381 153.074 40.8765 152.519 40.3869C151.963 39.8973 151.894 39.0519 152.374 38.488L163.735 25.1457Z" fill="white" fill-opacity="0.24"/>
<path d="M167.718 28.7293C168.36 28.0535 169.43 28.0251 170.095 28.6786C170.759 29.332 170.75 30.4018 170.085 31.0555L157.593 43.3444C157.065 43.8637 156.217 43.8559 155.689 43.3368C155.16 42.8177 155.138 41.9697 155.648 41.4328L167.718 28.7293Z" fill="white" fill-opacity="0.24"/>
<path d="M171.362 32.378C172.039 31.7368 173.108 31.7645 173.738 32.4519C174.367 33.1393 174.302 34.2071 173.604 34.8251L160.484 46.4421C159.93 46.933 159.083 46.8808 158.583 46.3346C158.083 45.7885 158.105 44.9405 158.642 44.4311L171.362 32.378Z" fill="white" fill-opacity="0.24"/>
<path d="M174.793 36.1932C175.502 35.5881 176.568 35.6717 177.161 36.391C177.754 37.1103 177.633 38.1732 176.904 38.7539L163.196 49.6706C162.617 50.132 161.774 50.0356 161.303 49.4641C160.832 48.8926 160.898 48.047 161.461 47.5663L174.793 36.1932Z" fill="white" fill-opacity="0.24"/>
<path d="M177.987 40.1395C178.727 39.5719 179.787 39.7104 180.342 40.4593C180.897 41.2083 180.721 42.2635 179.963 42.8058L165.71 53.0003C165.108 53.4311 164.271 53.2914 163.83 52.6963C163.389 52.1013 163.499 51.2602 164.086 50.8092L177.987 40.1395Z" fill="white" fill-opacity="0.24"/>
</svg>
