<svg width="208" height="128" viewBox="0 0 208 128" fill="none" xmlns="http://www.w3.org/2000/svg">
<path d="M71.4085 95L68.4125 86.572V95H67.1805V85.2H69.1125L72.0245 93.39L74.9365 85.2H76.8685V95H75.6225V86.628L72.6545 95H71.4085ZM80.4904 95.21C79.7344 95.21 79.1371 95.0093 78.6984 94.608C78.2691 94.1973 78.0544 93.6747 78.0544 93.04C78.0544 92.4147 78.2644 91.92 78.6844 91.556C79.1138 91.192 79.7344 90.982 80.5464 90.926L82.3384 90.8C82.5158 90.7813 82.6418 90.73 82.7164 90.646C82.8004 90.5527 82.8424 90.394 82.8424 90.17C82.8424 89.7033 82.6884 89.358 82.3804 89.134C82.0818 88.91 81.6851 88.798 81.1904 88.798C80.6771 88.798 80.2664 88.9193 79.9584 89.162C79.6598 89.3953 79.4824 89.7313 79.4264 90.17H78.2504C78.3531 89.3767 78.6564 88.7793 79.1604 88.378C79.6738 87.9673 80.3598 87.762 81.2184 87.762C82.1238 87.762 82.8238 87.9953 83.3184 88.462C83.8224 88.9287 84.0744 89.6427 84.0744 90.604V93.936H84.6344V95H84.1164C83.7618 95 83.4864 94.8973 83.2904 94.692C83.1038 94.4773 83.0104 94.1693 83.0104 93.768V93.67C82.7958 94.1647 82.4691 94.5473 82.0304 94.818C81.6011 95.0793 81.0878 95.21 80.4904 95.21ZM80.6584 94.188C81.3118 94.188 81.8438 93.9827 82.2544 93.572C82.6744 93.152 82.8844 92.5967 82.8844 91.906V91.668L80.7004 91.808C79.7578 91.8733 79.2864 92.2653 79.2864 92.984C79.2864 93.7867 79.7438 94.188 80.6584 94.188ZM88.1654 95C87.4654 95 86.9381 94.8273 86.5834 94.482C86.2287 94.1273 86.0514 93.6327 86.0514 92.998V89.036H84.7774V87.972H85.5474C85.9207 87.972 86.1074 87.7853 86.1074 87.412V85.76H87.2274V87.972H88.6554V89.036H87.2414V93.516C87.2414 93.796 87.3861 93.936 87.6754 93.936H88.8654V95H88.1654ZM92.7354 95.21C91.7181 95.21 90.8967 94.8693 90.2714 94.188C89.6461 93.5067 89.3334 92.606 89.3334 91.486C89.3334 90.366 89.6461 89.4653 90.2714 88.784C90.8967 88.1027 91.7181 87.762 92.7354 87.762C93.6034 87.762 94.3221 88.014 94.8914 88.518C95.4607 89.022 95.8014 89.7173 95.9134 90.604H94.7094C94.6347 90.0627 94.4154 89.6333 94.0514 89.316C93.6874 88.9893 93.2441 88.826 92.7214 88.826C92.0774 88.826 91.5594 89.0687 91.1674 89.554C90.7754 90.0393 90.5794 90.6833 90.5794 91.486C90.5794 92.2887 90.7754 92.9327 91.1674 93.418C91.5687 93.9033 92.0914 94.146 92.7354 94.146C93.2581 94.146 93.7107 93.978 94.0934 93.642C94.4854 93.306 94.7187 92.8673 94.7934 92.326H95.9834C95.8901 93.2127 95.5447 93.9173 94.9474 94.44C94.3501 94.9533 93.6127 95.21 92.7354 95.21ZM101.829 90.8C101.829 89.484 101.302 88.826 100.247 88.826C99.5935 88.826 99.0895 89.0593 98.7348 89.526C98.3802 89.9833 98.2028 90.6647 98.2028 91.57V95H96.9988V85.2H98.2028V89.078C98.6135 88.2007 99.3602 87.762 100.443 87.762C101.255 87.762 101.89 88.0047 102.347 88.49C102.804 88.9753 103.033 89.652 103.033 90.52V95H101.829V90.8ZM111.912 95.21C110.615 95.21 109.583 94.8693 108.818 94.188C108.062 93.5067 107.684 92.5547 107.684 91.332H108.958C108.958 92.2467 109.21 92.9327 109.714 93.39C110.218 93.838 110.941 94.062 111.884 94.062C112.696 94.062 113.307 93.9033 113.718 93.586C114.138 93.2687 114.348 92.8393 114.348 92.298C114.348 91.85 114.194 91.5047 113.886 91.262C113.587 91.01 113.093 90.8187 112.402 90.688L111.086 90.45C110.013 90.2353 109.233 89.9133 108.748 89.484C108.272 89.0453 108.034 88.4853 108.034 87.804C108.034 86.9547 108.347 86.2733 108.972 85.76C109.607 85.2467 110.465 84.99 111.548 84.99C112.696 84.99 113.615 85.2887 114.306 85.886C115.006 86.4833 115.356 87.3093 115.356 88.364H114.096C114.087 87.6173 113.858 87.0573 113.41 86.684C112.962 86.3107 112.341 86.124 111.548 86.124C110.811 86.124 110.251 86.2733 109.868 86.572C109.495 86.8613 109.308 87.258 109.308 87.762C109.308 88.1913 109.462 88.518 109.77 88.742C110.078 88.966 110.605 89.148 111.352 89.288L112.654 89.54C113.69 89.736 114.446 90.0627 114.922 90.52C115.398 90.968 115.636 91.5513 115.636 92.27C115.636 93.166 115.305 93.88 114.642 94.412C113.979 94.944 113.069 95.21 111.912 95.21ZM119.874 95.21C118.857 95.21 118.035 94.8693 117.41 94.188C116.785 93.5067 116.472 92.606 116.472 91.486C116.472 90.366 116.785 89.4653 117.41 88.784C118.035 88.1027 118.857 87.762 119.874 87.762C120.742 87.762 121.461 88.014 122.03 88.518C122.599 89.022 122.94 89.7173 123.052 90.604H121.848C121.773 90.0627 121.554 89.6333 121.19 89.316C120.826 88.9893 120.383 88.826 119.86 88.826C119.216 88.826 118.698 89.0687 118.306 89.554C117.914 90.0393 117.718 90.6833 117.718 91.486C117.718 92.2887 117.914 92.9327 118.306 93.418C118.707 93.9033 119.23 94.146 119.874 94.146C120.397 94.146 120.849 93.978 121.232 93.642C121.624 93.306 121.857 92.8673 121.932 92.326H123.122C123.029 93.2127 122.683 93.9173 122.086 94.44C121.489 94.9533 120.751 95.21 119.874 95.21ZM129.833 94.202C129.207 94.874 128.372 95.21 127.327 95.21C126.281 95.21 125.441 94.874 124.807 94.202C124.181 93.5207 123.869 92.6153 123.869 91.486C123.869 90.3567 124.181 89.456 124.807 88.784C125.441 88.1027 126.281 87.762 127.327 87.762C128.372 87.762 129.207 88.1027 129.833 88.784C130.467 89.456 130.785 90.3567 130.785 91.486C130.785 92.6153 130.467 93.5207 129.833 94.202ZM127.327 94.146C127.999 94.146 128.535 93.9033 128.937 93.418C129.338 92.9327 129.539 92.2887 129.539 91.486C129.539 90.6833 129.338 90.0393 128.937 89.554C128.535 89.0687 127.999 88.826 127.327 88.826C126.664 88.826 126.127 89.0687 125.717 89.554C125.315 90.0393 125.115 90.6833 125.115 91.486C125.115 92.2887 125.315 92.9327 125.717 93.418C126.127 93.9033 126.664 94.146 127.327 94.146ZM131.862 89.316C131.862 88.8867 131.974 88.5553 132.198 88.322C132.431 88.0887 132.753 87.972 133.164 87.972H135.376V89.036H133.066V95H131.862V89.316ZM139.042 95.21C137.997 95.21 137.166 94.874 136.55 94.202C135.943 93.53 135.64 92.6293 135.64 91.5C135.64 90.3707 135.943 89.4653 136.55 88.784C137.166 88.1027 137.987 87.762 139.014 87.762C140.097 87.762 140.927 88.1353 141.506 88.882C142.094 89.6287 142.313 90.6133 142.164 91.836H136.872C136.909 92.5733 137.115 93.1473 137.488 93.558C137.871 93.9687 138.389 94.174 139.042 94.174C139.546 94.174 139.952 94.0573 140.26 93.824C140.568 93.5907 140.773 93.32 140.876 93.012H142.08C141.912 93.6653 141.567 94.1973 141.044 94.608C140.521 95.0093 139.854 95.21 139.042 95.21ZM136.9 90.87H140.96C140.979 90.2727 140.811 89.778 140.456 89.386C140.101 88.9847 139.602 88.784 138.958 88.784C138.389 88.784 137.922 88.9707 137.558 89.344C137.194 89.7173 136.975 90.226 136.9 90.87Z" fill="#485066"/>
<path d="M96.952 76.42C94.8613 76.42 93.1813 75.888 91.912 74.824C90.6613 73.7413 90.036 72.304 90.036 70.512C90.036 69.2053 90.372 68.0947 91.044 67.18C91.7347 66.2467 92.6867 65.5653 93.9 65.136C92.9853 64.7627 92.276 64.212 91.772 63.484C91.268 62.756 91.016 61.916 91.016 60.964C91.016 59.508 91.5573 58.3133 92.64 57.38C93.7413 56.4467 95.1787 55.98 96.952 55.98C98.744 55.98 100.181 56.4467 101.264 57.38C102.347 58.3133 102.888 59.508 102.888 60.964C102.888 61.916 102.636 62.756 102.132 63.484C101.628 64.212 100.919 64.7627 100.004 65.136C101.217 65.5653 102.16 66.2467 102.832 67.18C103.523 68.0947 103.868 69.2053 103.868 70.512C103.868 72.3227 103.243 73.76 101.992 74.824C100.741 75.888 99.0613 76.42 96.952 76.42ZM93.676 73.256C94.4973 73.9467 95.5893 74.292 96.952 74.292C98.3147 74.292 99.3973 73.9467 100.2 73.256C101.021 72.5467 101.432 71.576 101.432 70.344C101.432 69.1307 101.021 68.1787 100.2 67.488C99.3973 66.7787 98.3147 66.424 96.952 66.424C95.5893 66.424 94.4973 66.7787 93.676 67.488C92.8733 68.1787 92.472 69.1307 92.472 70.344C92.472 71.576 92.8733 72.5467 93.676 73.256ZM94.376 63.624C95.0293 64.24 95.888 64.548 96.952 64.548C98.016 64.548 98.8653 64.2493 99.5 63.652C100.153 63.036 100.48 62.2427 100.48 61.272C100.48 60.3013 100.153 59.5173 99.5 58.92C98.8653 58.3227 98.016 58.024 96.952 58.024C95.888 58.024 95.0293 58.332 94.376 58.948C93.7227 59.5453 93.396 60.32 93.396 61.272C93.396 62.224 93.7227 63.008 94.376 63.624ZM107.179 76L115.579 58.528H104.435V56.4H118.211V58.416L109.755 76H107.179Z" fill="black"/>
<path d="M206.996 104C207.55 104 208.001 103.55 207.995 102.996C207.867 89.6799 205.182 76.5094 200.083 64.2009C194.857 51.5831 187.196 40.1182 177.539 30.4609C167.882 20.8036 156.417 13.143 143.799 7.91653C131.181 2.69004 117.657 -5.96987e-07 104 0C90.3425 5.96987e-07 76.8188 2.69004 64.2009 7.91653C51.5831 13.143 40.1182 20.8036 30.4609 30.4609C20.8036 40.1182 13.143 51.5831 7.91653 64.2009C2.81817 76.5094 0.133427 89.68 0.00484846 102.996C-0.000506674 103.55 0.449602 104 1.00422 104C1.55883 104 2.00791 103.55 2.01337 102.996C2.14189 89.9437 4.77466 77.0344 9.77207 64.9695C14.8976 52.5953 22.4103 41.3519 31.8811 31.8811C41.3519 22.4103 52.5953 14.8976 64.9695 9.77208C77.3437 4.64652 90.6063 2.00843 104 2.00843C117.394 2.00843 130.656 4.64652 143.03 9.77207C155.405 14.8976 166.648 22.4103 176.119 31.8811C185.59 41.3519 193.102 52.5953 198.228 64.9695C203.225 77.0343 205.858 89.9437 205.987 102.996C205.992 103.55 206.441 104 206.996 104Z" fill="#F6F6F6"/>
<path d="M202 104C203.105 104 204.002 103.104 203.98 102C203.731 89.5491 201.158 77.248 196.388 65.7317C191.362 53.5991 183.997 42.5752 174.711 33.2893C165.425 24.0035 154.401 16.6375 142.268 11.612C130.136 6.58658 117.132 4 104 4C90.8678 4 77.8642 6.58658 65.7317 11.612C53.5991 16.6375 42.5752 24.0035 33.2893 33.2893C24.0035 42.5752 16.6375 53.5991 11.612 65.7317C6.84183 77.248 4.26905 89.5491 4.02 102C3.99791 103.104 4.89543 104 6 104H22.5524C23.6569 104 24.5497 103.104 24.5775 102C24.8231 92.2485 26.8626 82.6194 30.5999 73.5967C34.5926 63.9577 40.4446 55.1994 47.822 47.822C55.1994 40.4446 63.9577 34.5926 73.5967 30.5999C83.2357 26.6073 93.5668 24.5524 104 24.5524C114.433 24.5524 124.764 26.6073 134.403 30.5999C144.042 34.5926 152.801 40.4446 160.178 47.822C167.555 55.1994 173.407 63.9577 177.4 73.5967C181.137 82.6194 183.177 92.2485 183.422 102C183.45 103.104 184.343 104 185.448 104H202Z" fill="#F6F6F6"/>
<path d="M6 104C4.89543 104 3.99791 103.104 4.01999 102C4.43361 81.3129 11.256 61.2444 23.5711 44.5762C36.2826 27.3714 54.1762 14.6962 74.6237 8.41217C95.0712 2.12819 116.995 2.56667 137.175 9.66321C156.725 16.5384 173.641 29.3117 185.601 46.1961C186.239 47.0975 186 48.3425 185.086 48.9629L171.39 58.2587C170.476 58.8791 169.235 58.6392 168.591 57.7412C159.104 44.493 145.759 34.4683 130.357 29.0516C114.324 23.4136 96.9063 23.0652 80.6612 28.0577C64.4162 33.0502 50.2001 43.1204 40.1011 56.7892C30.3987 69.9212 24.9876 85.7099 24.5775 102C24.5497 103.104 23.6569 104 22.5524 104H6Z" fill="#FFC700"/>
<path d="M5.7025 102.306C4.77043 102.29 4.02637 101.521 4.05817 100.59C4.08995 99.6581 4.88467 98.942 5.81567 98.9895L23.3163 99.8826C24.056 99.9203 24.6238 100.551 24.5986 101.291C24.5733 102.031 23.9639 102.621 23.2233 102.608L5.7025 102.306Z" fill="white" fill-opacity="0.24"/>
<path d="M5.91454 97.3284C4.98448 97.2651 4.28032 96.4597 4.35928 95.5309C4.43823 94.602 5.26822 93.927 6.1956 94.0216L23.6286 95.8002C24.3653 95.8754 24.9005 96.5335 24.8378 97.2715C24.7751 98.0094 24.1365 98.5678 23.3976 98.5175L5.91454 97.3284Z" fill="white" fill-opacity="0.24"/>
<path d="M6.42842 91.9561C5.50325 91.8419 4.84435 90.9991 4.97414 90.0759C5.10394 89.1528 5.96973 88.5244 6.89052 88.6697L24.1996 91.4023C24.9312 91.5177 25.4294 92.2043 25.3263 92.9377C25.2232 93.6711 24.5549 94.1936 23.8199 94.1028L6.42842 91.9561Z" fill="white" fill-opacity="0.24"/>
<path d="M7.2117 86.7578C6.29395 86.5943 5.68103 85.7175 5.85999 84.8026C6.03896 83.8878 6.93709 83.3065 7.8488 83.5009L24.9871 87.1547C25.7114 87.3091 26.1723 88.0213 26.0301 88.7481C25.8879 89.475 25.1927 89.961 24.4635 89.8311L7.2117 86.7578Z" fill="white" fill-opacity="0.24"/>
<path d="M8.32651 81.3759C7.41933 81.1614 6.85637 80.2516 7.08618 79.3482C7.31598 78.4448 8.24519 77.9146 9.14462 78.1596L26.0519 82.7655C26.7665 82.9602 27.1868 83.697 27.0042 84.4147C26.8217 85.1325 26.1004 85.5789 25.3796 85.4085L8.32651 81.3759Z" fill="white" fill-opacity="0.24"/>
<path d="M9.69434 76.2203C8.80013 75.9569 8.28734 75.018 8.56581 74.1284C8.84427 73.2387 9.80087 72.7597 10.6857 73.0532L27.3183 78.5692C28.0213 78.8024 28.401 79.5609 28.1798 80.2677C27.9585 80.9745 27.2141 81.3811 26.5037 81.1719L9.69434 76.2203Z" fill="white" fill-opacity="0.24"/>
<path d="M11.3797 71.0342C10.5015 70.7216 10.0415 69.7557 10.3689 68.8828C10.6963 68.01 11.6779 67.5848 12.5451 67.9268L28.8463 74.3566C29.5353 74.6284 29.8724 75.4068 29.6123 76.1002C29.3522 76.7937 28.5863 77.1584 27.8886 76.9101L11.3797 71.0342Z" fill="white" fill-opacity="0.24"/>
<path d="M13.2817 66.1126C12.4215 65.7534 12.014 64.7642 12.3877 63.9102C12.7614 63.0562 13.7645 62.6843 14.6121 63.0723L30.5449 70.3674C31.2183 70.6757 31.5131 71.4711 31.2162 72.1496C30.9193 72.8281 30.135 73.1512 29.4516 72.8658L13.2817 66.1126Z" fill="white" fill-opacity="0.24"/>
<path d="M15.4639 61.261C14.6244 60.8558 14.271 59.846 14.6904 59.0134C15.1098 58.1809 16.1315 57.8637 16.9568 58.2971L32.4717 66.4433C33.1274 66.7876 33.3788 67.5978 33.0456 68.2592C32.7124 68.9207 31.9118 69.2009 31.2448 68.8789L15.4639 61.261Z" fill="white" fill-opacity="0.24"/>
<path d="M17.9376 56.4759C17.1216 56.0253 16.8241 54.9977 17.2884 54.1894C17.7527 53.381 18.7903 53.1203 19.5907 53.5983L34.6361 62.582C35.2719 62.9617 35.4786 63.7844 35.1097 64.4266C34.7408 65.0688 33.926 65.3048 33.2776 64.9468L17.9376 56.4759Z" fill="white" fill-opacity="0.24"/>
<path d="M20.8574 51.535C20.069 51.0375 19.832 49.9943 20.3427 49.2144C20.8534 48.4346 21.9044 48.2349 22.6756 48.7587L37.1711 58.605C37.7837 59.0212 37.942 59.8546 37.5363 60.4741C37.1305 61.0937 36.3033 61.2817 35.677 60.8865L20.8574 51.535Z" fill="white" fill-opacity="0.24"/>
<path d="M24.1464 46.6531C23.3892 46.1093 23.215 45.0538 23.7715 44.3059C24.328 43.558 25.3891 43.4215 26.1274 43.9906L40.0077 54.6868C40.5943 55.1389 40.7025 55.9802 40.2603 56.5744C39.8182 57.1686 38.9813 57.3068 38.3797 56.8748L24.1464 46.6531Z" fill="white" fill-opacity="0.24"/>
<path d="M27.5283 42.2153C26.8032 41.6295 26.6892 40.5657 27.2872 39.8506C27.8852 39.1355 28.9523 39.0595 29.6572 39.6695L42.9083 51.1359C43.4683 51.6206 43.5286 52.4667 43.0535 53.0348C42.5784 53.603 41.7349 53.6934 41.1588 53.228L27.5283 42.2153Z" fill="white" fill-opacity="0.24"/>
<path d="M30.7791 38.3954C30.0848 37.7734 30.0251 36.7052 30.6588 36.0215C31.2925 35.3378 32.3621 35.3163 33.035 35.9615L45.6841 48.0889C46.2186 48.6014 46.2356 49.4495 45.7322 49.9927C45.2287 50.5359 44.3818 50.5832 43.8302 50.089L30.7791 38.3954Z" fill="white" fill-opacity="0.24"/>
<path d="M34.4829 34.4828C33.8237 33.8237 33.8227 32.7539 34.4929 32.1059C35.1631 31.458 36.2323 31.4951 36.8688 32.1761L48.8345 44.9782C49.3402 45.5193 49.3107 46.3671 48.7782 46.8818C48.2458 47.3966 47.3975 47.3975 46.8738 46.8738L34.4829 34.4828Z" fill="white" fill-opacity="0.24"/>
<path d="M38.3513 30.8186C37.7288 30.1247 37.7858 29.0564 38.4901 28.4457C39.1944 27.835 40.26 27.93 40.8587 28.6446L52.1132 42.0761C52.5889 42.6438 52.5135 43.4887 51.9539 43.9739C51.3943 44.4591 50.5473 44.414 50.0527 43.8627L38.3513 30.8186Z" fill="white" fill-opacity="0.24"/>
<path d="M42.4922 27.3054C41.909 26.5782 42.0248 25.5147 42.7618 24.9438C43.4987 24.373 44.5574 24.5266 45.1158 25.2731L55.6115 39.3057C56.0551 39.8987 55.9332 40.7382 55.3477 41.1917C54.7622 41.6453 53.9189 41.5535 53.4555 40.9757L42.4922 27.3054Z" fill="white" fill-opacity="0.24"/>
<path d="M47.1323 23.8044C46.593 23.044 46.7715 21.9892 47.541 21.4629C48.3104 20.9366 49.3582 21.1526 49.8714 21.9307L59.5195 36.559C59.9272 37.1773 59.7559 38.0081 59.1446 38.4262C58.5333 38.8443 57.6969 38.7029 57.2685 38.0987L47.1323 23.8044Z" fill="white" fill-opacity="0.24"/>
<path d="M51.9674 20.5861C51.474 19.7952 51.7145 18.7528 52.5136 18.2728C53.3128 17.7928 54.346 18.0703 54.8124 18.8775L63.5797 34.05C63.9503 34.6912 63.7302 35.5104 63.0953 35.8918C62.4604 36.2731 61.6338 36.0825 61.2418 35.4541L51.9674 20.5861Z" fill="white" fill-opacity="0.24"/>
<path d="M56.5664 17.8877C56.1167 17.0712 56.4133 16.0433 57.2373 15.6074C58.0613 15.1715 59.0779 15.5046 59.4999 16.3358L67.4317 31.9613C67.767 32.6217 67.5028 33.4278 66.8481 33.7742C66.1935 34.1205 65.3785 33.8853 65.0211 33.2366L56.5664 17.8877Z" fill="white" fill-opacity="0.24"/>
<path d="M61.1207 15.5317C60.7141 14.6929 61.0639 13.6819 61.9096 13.2895C62.7552 12.8971 63.7531 13.2828 64.1311 14.1349L71.2375 30.1527C71.5378 30.8297 71.2319 31.6209 70.5601 31.9326C69.8883 32.2444 69.0867 31.967 68.7636 31.3006L61.1207 15.5317Z" fill="white" fill-opacity="0.24"/>
<path d="M65.8393 13.3963C65.4774 12.5372 65.88 11.546 66.7451 11.1987C67.6102 10.8514 68.5864 11.2891 68.9191 12.1599L75.172 28.5298C75.4363 29.2217 75.0892 29.9957 74.4019 30.2716C73.7146 30.5475 72.9286 30.2283 72.6412 29.5458L65.8393 13.3963Z" fill="white" fill-opacity="0.24"/>
<path d="M70.5307 11.5604C70.2133 10.6839 70.6661 9.71467 71.5479 9.41215C72.4296 9.10963 73.3821 9.59673 73.6697 10.4835L79.0759 27.1521C79.3044 27.8566 78.9181 28.6118 78.2176 28.8522C77.517 29.0925 76.7485 28.7335 76.4963 28.0371L70.5307 11.5604Z" fill="white" fill-opacity="0.24"/>
<path d="M75.3733 9.948C75.1019 9.05619 75.6044 8.11175 76.5006 7.85539C77.3969 7.59904 78.3228 8.13492 78.564 9.03538L83.0978 25.9622C83.2894 26.6776 82.8645 27.4117 82.1524 27.6154C81.4403 27.819 80.6915 27.4206 80.4758 26.7121L75.3733 9.948Z" fill="white" fill-opacity="0.24"/>
<path d="M80.4528 8.54951C80.2295 7.64444 80.7819 6.72827 81.6906 6.5203C82.5993 6.31233 83.4952 6.89704 83.6878 7.80913L87.3083 24.9545C87.4613 25.6791 86.9977 26.3894 86.2757 26.5547C85.5538 26.7199 84.8273 26.2819 84.6499 25.5629L80.4528 8.54951Z" fill="white" fill-opacity="0.24"/>
<path d="M85.491 7.44595C85.3155 6.53041 85.9152 5.64447 86.8336 5.48445C87.7519 5.32442 88.6159 5.95531 88.7604 6.87625L91.4768 24.1879C91.5916 24.9195 91.0913 25.6046 90.3617 25.7317C89.6321 25.8589 88.9296 25.3834 88.7901 24.656L85.491 7.44595Z" fill="white" fill-opacity="0.24"/>
<path d="M90.6789 6.59457C90.5526 5.67097 91.1988 4.81836 92.1244 4.70765C93.05 4.59695 93.8791 5.27312 93.9741 6.20046L95.7612 23.6325C95.8367 24.3693 95.3005 25.0266 94.5651 25.1146C93.8298 25.2025 93.1537 24.6902 93.0533 23.9564L90.6789 6.59457Z" fill="white" fill-opacity="0.24"/>
<path d="M95.9251 6.02008C95.8486 5.09103 96.5396 4.27432 97.4698 4.21345C98.4 4.15257 99.1916 4.87226 99.2367 5.80337L100.086 23.3062C100.122 24.046 99.5509 24.6736 98.8119 24.7219C98.0729 24.7703 97.4252 24.2224 97.3644 23.4843L95.9251 6.02008Z" fill="white" fill-opacity="0.24"/>
<path d="M100.97 5.73462C100.941 4.80286 101.673 4.02273 102.605 4.00973C103.537 3.99673 104.291 4.75613 104.288 5.68833L104.237 23.2117C104.235 23.9523 103.632 24.5498 102.892 24.5601C102.151 24.5704 101.533 23.99 101.51 23.2497L100.97 5.73462Z" fill="white" fill-opacity="0.24"/>
<path d="M105.767 5.7038C105.784 4.77174 106.553 4.02826 107.485 4.06075C108.417 4.09323 109.132 4.8885 109.084 5.81945L108.178 23.3195C108.14 24.0591 107.509 24.6264 106.769 24.6006C106.029 24.5748 105.439 23.9649 105.452 23.2244L105.767 5.7038Z" fill="white" fill-opacity="0.24"/>
<path d="M110.858 5.92737C110.923 4.99743 111.729 4.2948 112.658 4.37551C113.587 4.45622 114.26 5.28749 114.164 6.2147L112.352 23.6442C112.276 24.3809 111.616 24.9148 110.879 24.8507C110.141 24.7866 109.584 24.1469 109.635 23.4081L110.858 5.92737Z" fill="white" fill-opacity="0.24"/>
<path d="M116.021 6.42565C116.135 5.50044 116.978 4.84134 117.901 4.97093C118.824 5.10051 119.453 5.96615 119.308 6.88698L116.579 24.1967C116.464 24.9283 115.778 25.4267 115.044 25.3237C114.311 25.2208 113.788 24.5527 113.879 23.8176L116.021 6.42565Z" fill="white" fill-opacity="0.24"/>
<path d="M121.236 7.21067C121.4 6.29291 122.277 5.67995 123.192 5.85885C124.106 6.03775 124.688 6.93585 124.493 7.84758L120.841 24.9861C120.686 25.7104 119.974 26.1713 119.247 26.0292C118.52 25.887 118.034 25.1918 118.164 24.4627L121.236 7.21067Z" fill="white" fill-opacity="0.24"/>
<path d="M126.144 8.21423C126.354 7.30598 127.261 6.73847 128.165 6.96374C129.07 7.18901 129.605 8.11555 129.364 9.0162L124.843 25.9464C124.652 26.6619 123.917 27.0859 123.199 26.907C122.48 26.728 122.03 26.009 122.197 25.2874L126.144 8.21423Z" fill="white" fill-opacity="0.24"/>
<path d="M131.269 9.54534C131.527 8.64971 132.463 8.13186 133.355 8.4055C134.246 8.67915 134.73 9.63314 134.441 10.5195L129.015 27.1818C128.786 27.886 128.03 28.2698 127.322 28.0524C126.614 27.835 126.203 27.0928 126.408 26.3812L131.269 9.54534Z" fill="white" fill-opacity="0.24"/>
<path d="M136.186 11.1057C136.491 10.2248 137.453 9.7568 138.328 10.0768C139.204 10.3968 139.637 11.3749 139.303 12.2449L133.01 28.5996C132.744 29.2908 131.969 29.6345 131.273 29.3802C130.577 29.126 130.206 28.3632 130.449 27.6634L136.186 11.1057Z" fill="white" fill-opacity="0.24"/>
<path d="M141.145 12.975C141.497 12.1119 142.483 11.6964 143.34 12.0631C144.197 12.4298 144.577 13.4298 144.196 14.2806L137.031 30.2724C136.728 30.9483 135.935 31.2497 135.254 30.9583C134.574 30.6669 134.244 29.8853 134.524 29.1996L141.145 12.975Z" fill="white" fill-opacity="0.24"/>
<path d="M145.993 15.1075C146.391 14.2646 147.398 13.9028 148.234 14.3152C149.07 14.7275 149.396 15.7465 148.969 16.5755L140.954 32.1583C140.615 32.8169 139.807 33.0751 139.143 32.7475C138.478 32.4199 138.192 31.6216 138.508 30.952L145.993 15.1075Z" fill="white" fill-opacity="0.24"/>
<path d="M150.808 17.546C151.252 16.7262 152.277 16.4202 153.089 16.8778C153.901 17.3354 154.17 18.3708 153.699 19.1751L144.841 34.2945C144.466 34.9335 143.645 35.147 143 34.7834C142.355 34.4199 142.112 33.6071 142.465 32.9558L150.808 17.546Z" fill="white" fill-opacity="0.24"/>
<path d="M155.096 20.0091C155.58 19.2127 156.62 18.9586 157.408 19.4565C158.196 19.9543 158.413 21.0019 157.902 21.7815L148.294 36.4364C147.888 37.0558 147.057 37.2277 146.431 36.8321C145.805 36.4366 145.604 35.6126 145.988 34.9799L155.096 20.0091Z" fill="white" fill-opacity="0.24"/>
<path d="M159.375 22.7667C159.9 21.9965 160.951 21.7965 161.713 22.3345C162.474 22.8725 162.636 23.9299 162.086 24.682L151.732 38.8199C151.295 39.4174 150.456 39.5461 149.851 39.1187C149.246 38.6913 149.088 37.8579 149.505 37.246L159.375 22.7667Z" fill="white" fill-opacity="0.24"/>
<path d="M163.64 25.8442C164.206 25.1031 165.266 24.9597 165.997 25.5376C166.729 26.1155 166.834 27.1801 166.244 27.9017L155.149 41.4657C154.681 42.039 153.836 42.1226 153.255 41.6635C152.674 41.2043 152.56 40.3637 153.01 39.7749L163.64 25.8442Z" fill="white" fill-opacity="0.24"/>
<path d="M167.735 29.1457C168.339 28.4359 169.405 28.3493 170.105 28.9656C170.804 29.5818 170.853 30.6505 170.225 31.3395L158.421 44.2907C157.922 44.8381 157.074 44.8765 156.519 44.3869C155.963 43.8973 155.894 43.0519 156.374 42.488L167.735 29.1457Z" fill="white" fill-opacity="0.24"/>
<path d="M171.718 32.7293C172.36 32.0535 173.43 32.0251 174.095 32.6786C174.759 33.332 174.75 34.4018 174.085 35.0555L161.593 47.3444C161.065 47.8637 160.217 47.8559 159.689 47.3368C159.16 46.8177 159.138 45.9697 159.648 45.4328L171.718 32.7293Z" fill="white" fill-opacity="0.24"/>
<path d="M175.362 36.378C176.039 35.7368 177.108 35.7645 177.738 36.4519C178.367 37.1393 178.302 38.2071 177.604 38.8251L164.484 50.4421C163.93 50.933 163.083 50.8808 162.583 50.3346C162.083 49.7885 162.105 48.9405 162.642 48.4311L175.362 36.378Z" fill="white" fill-opacity="0.24"/>
<path d="M178.793 40.1932C179.502 39.5881 180.568 39.6717 181.161 40.391C181.754 41.1103 181.633 42.1732 180.904 42.7539L167.196 53.6706C166.617 54.132 165.774 54.0356 165.303 53.4641C164.832 52.8926 164.898 52.047 165.461 51.5663L178.793 40.1932Z" fill="white" fill-opacity="0.24"/>
<path d="M181.987 44.1395C182.727 43.5719 183.787 43.7104 184.342 44.4593C184.897 45.2083 184.721 46.2635 183.963 46.8058L169.71 57.0003C169.108 57.4311 168.271 57.2914 167.83 56.6963C167.389 56.1013 167.499 55.2602 168.086 54.8092L181.987 44.1395Z" fill="white" fill-opacity="0.24"/>
</svg>
