<svg width="208" height="128" viewBox="0 0 208 128" fill="none" xmlns="http://www.w3.org/2000/svg">
<path d="M71.012 95L68.016 86.572V95H66.784V85.2H68.716L71.628 93.39L74.54 85.2H76.472V95H75.226V86.628L72.258 95H71.012ZM80.094 95.21C79.338 95.21 78.7406 95.0093 78.302 94.608C77.8726 94.1973 77.658 93.6747 77.658 93.04C77.658 92.4147 77.868 91.92 78.288 91.556C78.7173 91.192 79.338 90.982 80.15 90.926L81.942 90.8C82.1193 90.7813 82.2453 90.73 82.32 90.646C82.404 90.5527 82.446 90.394 82.446 90.17C82.446 89.7033 82.292 89.358 81.984 89.134C81.6853 88.91 81.2886 88.798 80.794 88.798C80.2806 88.798 79.87 88.9193 79.562 89.162C79.2633 89.3953 79.086 89.7313 79.03 90.17H77.854C77.9566 89.3767 78.26 88.7793 78.764 88.378C79.2773 87.9673 79.9633 87.762 80.822 87.762C81.7273 87.762 82.4273 87.9953 82.922 88.462C83.426 88.9287 83.678 89.6427 83.678 90.604V93.936H84.238V95H83.72C83.3653 95 83.09 94.8973 82.894 94.692C82.7073 94.4773 82.614 94.1693 82.614 93.768V93.67C82.3993 94.1647 82.0726 94.5473 81.634 94.818C81.2046 95.0793 80.6913 95.21 80.094 95.21ZM80.262 94.188C80.9153 94.188 81.4473 93.9827 81.858 93.572C82.278 93.152 82.488 92.5967 82.488 91.906V91.668L80.304 91.808C79.3613 91.8733 78.89 92.2653 78.89 92.984C78.89 93.7867 79.3473 94.188 80.262 94.188ZM87.7689 95C87.0689 95 86.5416 94.8273 86.1869 94.482C85.8322 94.1273 85.6549 93.6327 85.6549 92.998V89.036H84.3809V87.972H85.1509C85.5242 87.972 85.7109 87.7853 85.7109 87.412V85.76H86.8309V87.972H88.2589V89.036H86.8449V93.516C86.8449 93.796 86.9896 93.936 87.2789 93.936H88.4689V95H87.7689ZM92.3389 95.21C91.3216 95.21 90.5003 94.8693 89.8749 94.188C89.2496 93.5067 88.9369 92.606 88.9369 91.486C88.9369 90.366 89.2496 89.4653 89.8749 88.784C90.5003 88.1027 91.3216 87.762 92.3389 87.762C93.2069 87.762 93.9256 88.014 94.4949 88.518C95.0643 89.022 95.4049 89.7173 95.5169 90.604H94.3129C94.2383 90.0627 94.0189 89.6333 93.6549 89.316C93.2909 88.9893 92.8476 88.826 92.3249 88.826C91.6809 88.826 91.1629 89.0687 90.7709 89.554C90.3789 90.0393 90.1829 90.6833 90.1829 91.486C90.1829 92.2887 90.3789 92.9327 90.7709 93.418C91.1723 93.9033 91.6949 94.146 92.3389 94.146C92.8616 94.146 93.3143 93.978 93.6969 93.642C94.0889 93.306 94.3223 92.8673 94.3969 92.326H95.5869C95.4936 93.2127 95.1483 93.9173 94.5509 94.44C93.9536 94.9533 93.2163 95.21 92.3389 95.21ZM101.432 90.8C101.432 89.484 100.905 88.826 99.8504 88.826C99.197 88.826 98.693 89.0593 98.3384 89.526C97.9837 89.9833 97.8064 90.6647 97.8064 91.57V95H96.6024V85.2H97.8064V89.078C98.217 88.2007 98.9637 87.762 100.046 87.762C100.858 87.762 101.493 88.0047 101.95 88.49C102.408 88.9753 102.636 89.652 102.636 90.52V95H101.432V90.8ZM111.516 95.21C110.218 95.21 109.187 94.8693 108.422 94.188C107.666 93.5067 107.288 92.5547 107.288 91.332H108.562C108.562 92.2467 108.814 92.9327 109.318 93.39C109.822 93.838 110.545 94.062 111.488 94.062C112.3 94.062 112.911 93.9033 113.322 93.586C113.742 93.2687 113.952 92.8393 113.952 92.298C113.952 91.85 113.798 91.5047 113.49 91.262C113.191 91.01 112.696 90.8187 112.006 90.688L110.69 90.45C109.616 90.2353 108.837 89.9133 108.352 89.484C107.876 89.0453 107.638 88.4853 107.638 87.804C107.638 86.9547 107.95 86.2733 108.576 85.76C109.21 85.2467 110.069 84.99 111.152 84.99C112.3 84.99 113.219 85.2887 113.91 85.886C114.61 86.4833 114.96 87.3093 114.96 88.364H113.7C113.69 87.6173 113.462 87.0573 113.014 86.684C112.566 86.3107 111.945 86.124 111.152 86.124C110.414 86.124 109.854 86.2733 109.472 86.572C109.098 86.8613 108.912 87.258 108.912 87.762C108.912 88.1913 109.066 88.518 109.374 88.742C109.682 88.966 110.209 89.148 110.956 89.288L112.258 89.54C113.294 89.736 114.05 90.0627 114.526 90.52C115.002 90.968 115.24 91.5513 115.24 92.27C115.24 93.166 114.908 93.88 114.246 94.412C113.583 94.944 112.673 95.21 111.516 95.21ZM119.478 95.21C118.46 95.21 117.639 94.8693 117.014 94.188C116.388 93.5067 116.076 92.606 116.076 91.486C116.076 90.366 116.388 89.4653 117.014 88.784C117.639 88.1027 118.46 87.762 119.478 87.762C120.346 87.762 121.064 88.014 121.634 88.518C122.203 89.022 122.544 89.7173 122.656 90.604H121.452C121.377 90.0627 121.158 89.6333 120.794 89.316C120.43 88.9893 119.986 88.826 119.464 88.826C118.82 88.826 118.302 89.0687 117.91 89.554C117.518 90.0393 117.322 90.6833 117.322 91.486C117.322 92.2887 117.518 92.9327 117.91 93.418C118.311 93.9033 118.834 94.146 119.478 94.146C120 94.146 120.453 93.978 120.836 93.642C121.228 93.306 121.461 92.8673 121.536 92.326H122.726C122.632 93.2127 122.287 93.9173 121.69 94.44C121.092 94.9533 120.355 95.21 119.478 95.21ZM129.436 94.202C128.811 94.874 127.975 95.21 126.93 95.21C125.885 95.21 125.045 94.874 124.41 94.202C123.785 93.5207 123.472 92.6153 123.472 91.486C123.472 90.3567 123.785 89.456 124.41 88.784C125.045 88.1027 125.885 87.762 126.93 87.762C127.975 87.762 128.811 88.1027 129.436 88.784C130.071 89.456 130.388 90.3567 130.388 91.486C130.388 92.6153 130.071 93.5207 129.436 94.202ZM126.93 94.146C127.602 94.146 128.139 93.9033 128.54 93.418C128.941 92.9327 129.142 92.2887 129.142 91.486C129.142 90.6833 128.941 90.0393 128.54 89.554C128.139 89.0687 127.602 88.826 126.93 88.826C126.267 88.826 125.731 89.0687 125.32 89.554C124.919 90.0393 124.718 90.6833 124.718 91.486C124.718 92.2887 124.919 92.9327 125.32 93.418C125.731 93.9033 126.267 94.146 126.93 94.146ZM131.465 89.316C131.465 88.8867 131.577 88.5553 131.801 88.322C132.035 88.0887 132.357 87.972 132.767 87.972H134.979V89.036H132.669V95H131.465V89.316ZM138.646 95.21C137.6 95.21 136.77 94.874 136.154 94.202C135.547 93.53 135.244 92.6293 135.244 91.5C135.244 90.3707 135.547 89.4653 136.154 88.784C136.77 88.1027 137.591 87.762 138.618 87.762C139.7 87.762 140.531 88.1353 141.11 88.882C141.698 89.6287 141.917 90.6133 141.768 91.836H136.476C136.513 92.5733 136.718 93.1473 137.092 93.558C137.474 93.9687 137.992 94.174 138.646 94.174C139.15 94.174 139.556 94.0573 139.864 93.824C140.172 93.5907 140.377 93.32 140.48 93.012H141.684C141.516 93.6653 141.17 94.1973 140.648 94.608C140.125 95.0093 139.458 95.21 138.646 95.21ZM136.504 90.87H140.564C140.582 90.2727 140.414 89.778 140.06 89.386C139.705 88.9847 139.206 88.784 138.562 88.784C137.992 88.784 137.526 88.9707 137.162 89.344C136.798 89.7173 136.578 90.226 136.504 90.87Z" fill="#485066"/>
<path d="M96.392 76.42C94.6373 76.42 93.2093 75.916 92.108 74.908C91.0253 73.8813 90.3813 72.5933 90.176 71.044H92.556C92.724 72.0147 93.1347 72.7987 93.788 73.396C94.4413 73.9933 95.3 74.292 96.364 74.292C99.556 74.292 101.18 71.52 101.236 65.976C100.881 66.9467 100.265 67.7027 99.388 68.244C98.5107 68.7853 97.4653 69.056 96.252 69.056C94.404 69.056 92.8827 68.4587 91.688 67.264C90.4933 66.0693 89.896 64.5107 89.896 62.588C89.896 60.628 90.4933 59.0413 91.688 57.828C92.9013 56.596 94.46 55.98 96.364 55.98C97.1107 55.98 97.8107 56.0827 98.464 56.288C99.136 56.4747 99.7893 56.82 100.424 57.324C101.059 57.8093 101.6 58.4253 102.048 59.172C102.515 59.9187 102.888 60.8893 103.168 62.084C103.448 63.26 103.588 64.5947 103.588 66.088C103.588 69.336 102.963 71.8747 101.712 73.704C100.461 75.5147 98.688 76.42 96.392 76.42ZM96.616 66.984C97.848 66.984 98.8373 66.5827 99.584 65.78C100.349 64.9773 100.732 63.932 100.732 62.644C100.732 61.3 100.331 60.208 99.528 59.368C98.7253 58.528 97.6987 58.108 96.448 58.108C95.2347 58.108 94.2453 58.5093 93.48 59.312C92.7333 60.1147 92.36 61.1787 92.36 62.504C92.36 63.8667 92.752 64.9587 93.536 65.78C94.32 66.5827 95.3467 66.984 96.616 66.984ZM113.021 65.92C114.01 65.2667 114.729 64.6133 115.177 63.96C115.625 63.288 115.849 62.5227 115.849 61.664C115.849 60.5813 115.513 59.7227 114.841 59.088C114.188 58.4347 113.282 58.108 112.125 58.108C110.874 58.108 109.894 58.5 109.185 59.284C108.476 60.0493 108.121 61.1973 108.121 62.728H105.713C105.713 60.6187 106.31 58.9667 107.505 57.772C108.7 56.5773 110.258 55.98 112.181 55.98C114.01 55.98 115.485 56.5213 116.605 57.604C117.744 58.668 118.313 60.0493 118.313 61.748C118.313 62.9427 117.986 64.0253 117.333 64.996C116.68 65.9667 115.606 66.9467 114.113 67.936L111.229 69.84C109.474 71.016 108.354 72.36 107.869 73.872H118.537V76H105.181C105.181 74.1893 105.582 72.6493 106.385 71.38C107.206 70.1107 108.457 68.9253 110.137 67.824L113.021 65.92Z" fill="black"/>
<path d="M206.996 104C207.55 104 208.001 103.55 207.995 102.996C207.867 89.6799 205.182 76.5094 200.083 64.2009C194.857 51.5831 187.196 40.1182 177.539 30.4609C167.882 20.8036 156.417 13.143 143.799 7.91653C131.181 2.69004 117.657 -5.96987e-07 104 0C90.3425 5.96987e-07 76.8188 2.69004 64.2009 7.91653C51.5831 13.143 40.1182 20.8036 30.4609 30.4609C20.8036 40.1182 13.143 51.5831 7.91653 64.2009C2.81817 76.5094 0.133427 89.68 0.00484846 102.996C-0.000506674 103.55 0.449602 104 1.00422 104C1.55883 104 2.00791 103.55 2.01337 102.996C2.14189 89.9437 4.77466 77.0344 9.77207 64.9695C14.8976 52.5953 22.4103 41.3519 31.8811 31.8811C41.3519 22.4103 52.5953 14.8976 64.9695 9.77208C77.3437 4.64652 90.6063 2.00843 104 2.00843C117.394 2.00843 130.656 4.64652 143.03 9.77207C155.405 14.8976 166.648 22.4103 176.119 31.8811C185.59 41.3519 193.102 52.5953 198.228 64.9695C203.225 77.0343 205.858 89.9437 205.987 102.996C205.992 103.55 206.441 104 206.996 104Z" fill="#F6F6F6"/>
<path d="M202 104C203.105 104 204.002 103.104 203.98 102C203.731 89.5491 201.158 77.248 196.388 65.7317C191.362 53.5991 183.997 42.5752 174.711 33.2893C165.425 24.0035 154.401 16.6375 142.268 11.612C130.136 6.58658 117.132 4 104 4C90.8678 4 77.8642 6.58658 65.7317 11.612C53.5991 16.6375 42.5752 24.0035 33.2893 33.2893C24.0035 42.5752 16.6375 53.5991 11.612 65.7317C6.84183 77.248 4.26905 89.5491 4.02 102C3.99791 103.104 4.89543 104 6 104H22.5524C23.6569 104 24.5497 103.104 24.5775 102C24.8231 92.2485 26.8626 82.6194 30.5999 73.5967C34.5926 63.9577 40.4446 55.1994 47.822 47.822C55.1994 40.4446 63.9577 34.5926 73.5967 30.5999C83.2357 26.6073 93.5668 24.5524 104 24.5524C114.433 24.5524 124.764 26.6073 134.403 30.5999C144.042 34.5926 152.801 40.4446 160.178 47.822C167.555 55.1994 173.407 63.9577 177.4 73.5967C181.137 82.6194 183.177 92.2485 183.422 102C183.45 103.104 184.343 104 185.448 104H202Z" fill="#F6F6F6"/>
<path d="M6 104C4.89543 104 3.99791 103.104 4.01999 102C4.50255 77.8576 13.7081 54.6783 29.9725 36.7696C46.6856 18.3668 69.654 6.84887 94.3986 4.46201C119.143 2.07514 143.89 8.99048 163.812 23.8594C183.2 38.3292 196.666 59.3215 201.754 82.9263C201.987 84.0061 201.277 85.057 200.193 85.2681L183.946 88.432C182.862 88.6431 181.814 87.9345 181.576 86.856C177.468 68.266 166.812 51.744 151.519 40.3302C135.691 28.5172 116.031 23.0231 96.3719 24.9194C76.7129 26.8157 58.465 35.9664 45.1869 50.587C32.3575 64.7135 25.0564 82.9677 24.5775 102C24.5497 103.104 23.6569 104 22.5524 104H6Z" fill="#62AF00"/>
<path d="M5.7025 102.306C4.77043 102.29 4.02637 101.521 4.05817 100.59C4.08995 99.6581 4.88467 98.942 5.81567 98.9895L23.3163 99.8826C24.056 99.9203 24.6238 100.551 24.5986 101.291C24.5733 102.031 23.9639 102.621 23.2233 102.608L5.7025 102.306Z" fill="white" fill-opacity="0.24"/>
<path d="M5.91454 97.3284C4.98448 97.2651 4.28032 96.4597 4.35928 95.5309C4.43823 94.602 5.26822 93.927 6.1956 94.0216L23.6286 95.8002C24.3653 95.8754 24.9005 96.5335 24.8378 97.2715C24.7751 98.0094 24.1365 98.5678 23.3976 98.5175L5.91454 97.3284Z" fill="white" fill-opacity="0.24"/>
<path d="M6.42842 91.9561C5.50325 91.8419 4.84435 90.9991 4.97414 90.0759C5.10394 89.1528 5.96973 88.5244 6.89052 88.6697L24.1996 91.4023C24.9312 91.5177 25.4294 92.2043 25.3263 92.9377C25.2232 93.6711 24.5549 94.1936 23.8199 94.1028L6.42842 91.9561Z" fill="white" fill-opacity="0.24"/>
<path d="M7.2117 86.7578C6.29395 86.5943 5.68103 85.7175 5.85999 84.8026C6.03896 83.8878 6.93709 83.3065 7.8488 83.5009L24.9871 87.1547C25.7114 87.3091 26.1723 88.0213 26.0301 88.7481C25.8879 89.475 25.1927 89.961 24.4635 89.8311L7.2117 86.7578Z" fill="white" fill-opacity="0.24"/>
<path d="M8.32651 81.3759C7.41933 81.1614 6.85637 80.2516 7.08618 79.3482C7.31598 78.4448 8.24519 77.9146 9.14462 78.1596L26.0519 82.7655C26.7665 82.9602 27.1868 83.697 27.0042 84.4147C26.8217 85.1325 26.1004 85.5789 25.3796 85.4085L8.32651 81.3759Z" fill="white" fill-opacity="0.24"/>
<path d="M9.69434 76.2203C8.80013 75.9569 8.28734 75.018 8.56581 74.1284C8.84427 73.2387 9.80087 72.7597 10.6857 73.0532L27.3183 78.5692C28.0213 78.8024 28.401 79.5609 28.1798 80.2677C27.9585 80.9745 27.2141 81.3811 26.5037 81.1719L9.69434 76.2203Z" fill="white" fill-opacity="0.24"/>
<path d="M11.3797 71.0342C10.5015 70.7216 10.0415 69.7557 10.3689 68.8828C10.6963 68.01 11.6779 67.5848 12.5451 67.9268L28.8463 74.3566C29.5353 74.6284 29.8724 75.4068 29.6123 76.1002C29.3522 76.7937 28.5863 77.1584 27.8886 76.9101L11.3797 71.0342Z" fill="white" fill-opacity="0.24"/>
<path d="M13.2817 66.1126C12.4215 65.7534 12.014 64.7642 12.3877 63.9102C12.7614 63.0562 13.7645 62.6843 14.6121 63.0723L30.5449 70.3674C31.2183 70.6757 31.5131 71.4711 31.2162 72.1496C30.9193 72.8281 30.135 73.1512 29.4516 72.8658L13.2817 66.1126Z" fill="white" fill-opacity="0.24"/>
<path d="M15.4639 61.261C14.6244 60.8558 14.271 59.846 14.6904 59.0134C15.1098 58.1809 16.1315 57.8637 16.9568 58.2971L32.4717 66.4433C33.1274 66.7876 33.3788 67.5978 33.0456 68.2592C32.7124 68.9207 31.9118 69.2009 31.2448 68.8789L15.4639 61.261Z" fill="white" fill-opacity="0.24"/>
<path d="M17.9376 56.4759C17.1216 56.0253 16.8241 54.9977 17.2884 54.1894C17.7527 53.381 18.7903 53.1203 19.5907 53.5983L34.6361 62.582C35.2719 62.9617 35.4786 63.7844 35.1097 64.4266C34.7408 65.0688 33.926 65.3048 33.2776 64.9468L17.9376 56.4759Z" fill="white" fill-opacity="0.24"/>
<path d="M20.8574 51.535C20.069 51.0375 19.832 49.9943 20.3427 49.2144C20.8534 48.4346 21.9044 48.2349 22.6756 48.7587L37.1711 58.605C37.7837 59.0212 37.942 59.8546 37.5363 60.4741C37.1305 61.0937 36.3033 61.2817 35.677 60.8865L20.8574 51.535Z" fill="white" fill-opacity="0.24"/>
<path d="M24.1464 46.6531C23.3892 46.1093 23.215 45.0538 23.7715 44.3059C24.328 43.558 25.3891 43.4215 26.1274 43.9906L40.0077 54.6868C40.5943 55.1389 40.7025 55.9802 40.2603 56.5744C39.8182 57.1686 38.9813 57.3068 38.3797 56.8748L24.1464 46.6531Z" fill="white" fill-opacity="0.24"/>
<path d="M27.5283 42.2153C26.8032 41.6295 26.6892 40.5657 27.2872 39.8506C27.8852 39.1355 28.9523 39.0595 29.6572 39.6695L42.9083 51.1359C43.4683 51.6206 43.5286 52.4667 43.0535 53.0348C42.5784 53.603 41.7349 53.6934 41.1588 53.228L27.5283 42.2153Z" fill="white" fill-opacity="0.24"/>
<path d="M30.7791 38.3954C30.0848 37.7734 30.0251 36.7052 30.6588 36.0215C31.2925 35.3378 32.3621 35.3163 33.035 35.9615L45.6841 48.0889C46.2186 48.6014 46.2356 49.4495 45.7322 49.9927C45.2287 50.5359 44.3818 50.5832 43.8302 50.089L30.7791 38.3954Z" fill="white" fill-opacity="0.24"/>
<path d="M34.4829 34.4828C33.8237 33.8237 33.8227 32.7539 34.4929 32.1059C35.1631 31.458 36.2323 31.4951 36.8688 32.1761L48.8345 44.9782C49.3402 45.5193 49.3107 46.3671 48.7782 46.8818C48.2458 47.3966 47.3975 47.3975 46.8738 46.8738L34.4829 34.4828Z" fill="white" fill-opacity="0.24"/>
<path d="M38.3513 30.8186C37.7288 30.1247 37.7858 29.0564 38.4901 28.4457C39.1944 27.835 40.26 27.93 40.8587 28.6446L52.1132 42.0761C52.5889 42.6438 52.5135 43.4887 51.9539 43.9739C51.3943 44.4591 50.5473 44.414 50.0527 43.8627L38.3513 30.8186Z" fill="white" fill-opacity="0.24"/>
<path d="M42.4922 27.3054C41.909 26.5782 42.0248 25.5147 42.7618 24.9438C43.4987 24.373 44.5574 24.5266 45.1158 25.2731L55.6115 39.3057C56.0551 39.8987 55.9332 40.7382 55.3477 41.1917C54.7622 41.6453 53.9189 41.5535 53.4555 40.9757L42.4922 27.3054Z" fill="white" fill-opacity="0.24"/>
<path d="M47.1323 23.8044C46.593 23.044 46.7715 21.9892 47.541 21.4629C48.3104 20.9366 49.3582 21.1526 49.8714 21.9307L59.5195 36.559C59.9272 37.1773 59.7559 38.0081 59.1446 38.4262C58.5333 38.8443 57.6969 38.7029 57.2685 38.0987L47.1323 23.8044Z" fill="white" fill-opacity="0.24"/>
<path d="M51.9674 20.5861C51.474 19.7952 51.7145 18.7528 52.5136 18.2728C53.3128 17.7928 54.346 18.0703 54.8124 18.8775L63.5797 34.05C63.9503 34.6912 63.7302 35.5104 63.0953 35.8918C62.4604 36.2731 61.6338 36.0825 61.2418 35.4541L51.9674 20.5861Z" fill="white" fill-opacity="0.24"/>
<path d="M56.5664 17.8877C56.1167 17.0712 56.4133 16.0433 57.2373 15.6074C58.0613 15.1715 59.0779 15.5046 59.4999 16.3358L67.4317 31.9613C67.767 32.6217 67.5028 33.4278 66.8481 33.7742C66.1935 34.1205 65.3785 33.8853 65.0211 33.2366L56.5664 17.8877Z" fill="white" fill-opacity="0.24"/>
<path d="M61.1207 15.5317C60.7141 14.6929 61.0639 13.6819 61.9096 13.2895C62.7552 12.8971 63.7531 13.2828 64.1311 14.1349L71.2375 30.1527C71.5378 30.8297 71.2319 31.6209 70.5601 31.9326C69.8883 32.2444 69.0867 31.967 68.7636 31.3006L61.1207 15.5317Z" fill="white" fill-opacity="0.24"/>
<path d="M65.8393 13.3963C65.4774 12.5372 65.88 11.546 66.7451 11.1987C67.6102 10.8514 68.5864 11.2891 68.9191 12.1599L75.172 28.5298C75.4363 29.2217 75.0892 29.9957 74.4019 30.2716C73.7146 30.5475 72.9286 30.2283 72.6412 29.5458L65.8393 13.3963Z" fill="white" fill-opacity="0.24"/>
<path d="M70.5307 11.5604C70.2133 10.6839 70.6661 9.71467 71.5479 9.41215C72.4296 9.10963 73.3821 9.59673 73.6697 10.4835L79.0759 27.1521C79.3044 27.8566 78.9181 28.6118 78.2176 28.8522C77.517 29.0925 76.7485 28.7335 76.4963 28.0371L70.5307 11.5604Z" fill="white" fill-opacity="0.24"/>
<path d="M75.3733 9.948C75.1019 9.05619 75.6044 8.11175 76.5006 7.85539C77.3969 7.59904 78.3228 8.13492 78.564 9.03538L83.0978 25.9622C83.2894 26.6776 82.8645 27.4117 82.1524 27.6154C81.4403 27.819 80.6915 27.4206 80.4758 26.7121L75.3733 9.948Z" fill="white" fill-opacity="0.24"/>
<path d="M80.4528 8.54951C80.2295 7.64444 80.7819 6.72827 81.6906 6.5203C82.5993 6.31233 83.4952 6.89704 83.6878 7.80913L87.3083 24.9545C87.4613 25.6791 86.9977 26.3894 86.2757 26.5547C85.5538 26.7199 84.8273 26.2819 84.6499 25.5629L80.4528 8.54951Z" fill="white" fill-opacity="0.24"/>
<path d="M85.491 7.44595C85.3155 6.53041 85.9152 5.64447 86.8336 5.48445C87.7519 5.32442 88.6159 5.95531 88.7604 6.87625L91.4768 24.1879C91.5916 24.9195 91.0913 25.6046 90.3617 25.7317C89.6321 25.8589 88.9296 25.3834 88.7901 24.656L85.491 7.44595Z" fill="white" fill-opacity="0.24"/>
<path d="M90.6789 6.59457C90.5526 5.67097 91.1988 4.81836 92.1244 4.70765C93.05 4.59695 93.8791 5.27312 93.9741 6.20046L95.7612 23.6325C95.8367 24.3693 95.3005 25.0266 94.5651 25.1146C93.8298 25.2025 93.1537 24.6902 93.0533 23.9564L90.6789 6.59457Z" fill="white" fill-opacity="0.24"/>
<path d="M95.9251 6.02008C95.8486 5.09103 96.5396 4.27432 97.4698 4.21345C98.4 4.15257 99.1916 4.87226 99.2367 5.80337L100.086 23.3062C100.122 24.046 99.5509 24.6736 98.8119 24.7219C98.0729 24.7703 97.4252 24.2224 97.3644 23.4843L95.9251 6.02008Z" fill="white" fill-opacity="0.24"/>
<path d="M100.97 5.73462C100.941 4.80286 101.673 4.02273 102.605 4.00973C103.537 3.99673 104.291 4.75613 104.288 5.68833L104.237 23.2117C104.235 23.9523 103.632 24.5498 102.892 24.5601C102.151 24.5704 101.533 23.99 101.51 23.2497L100.97 5.73462Z" fill="white" fill-opacity="0.24"/>
<path d="M105.767 5.7038C105.784 4.77174 106.553 4.02826 107.485 4.06075C108.417 4.09323 109.132 4.8885 109.084 5.81945L108.178 23.3195C108.14 24.0591 107.509 24.6264 106.769 24.6006C106.029 24.5748 105.439 23.9649 105.452 23.2244L105.767 5.7038Z" fill="white" fill-opacity="0.24"/>
<path d="M110.858 5.92737C110.923 4.99743 111.729 4.2948 112.658 4.37551C113.587 4.45622 114.26 5.28749 114.164 6.2147L112.352 23.6442C112.276 24.3809 111.616 24.9148 110.879 24.8507C110.141 24.7866 109.584 24.1469 109.635 23.4081L110.858 5.92737Z" fill="white" fill-opacity="0.24"/>
<path d="M116.021 6.42565C116.135 5.50044 116.978 4.84134 117.901 4.97093C118.824 5.10051 119.453 5.96615 119.308 6.88698L116.579 24.1967C116.464 24.9283 115.778 25.4267 115.044 25.3237C114.311 25.2208 113.788 24.5527 113.879 23.8176L116.021 6.42565Z" fill="white" fill-opacity="0.24"/>
<path d="M121.236 7.21067C121.4 6.29291 122.277 5.67995 123.192 5.85885C124.106 6.03775 124.688 6.93585 124.493 7.84758L120.841 24.9861C120.686 25.7104 119.974 26.1713 119.247 26.0292C118.52 25.887 118.034 25.1918 118.164 24.4627L121.236 7.21067Z" fill="white" fill-opacity="0.24"/>
<path d="M126.144 8.21423C126.354 7.30598 127.261 6.73847 128.165 6.96374C129.07 7.18901 129.605 8.11555 129.364 9.0162L124.843 25.9464C124.652 26.6619 123.917 27.0859 123.199 26.907C122.48 26.728 122.03 26.009 122.197 25.2874L126.144 8.21423Z" fill="white" fill-opacity="0.24"/>
<path d="M131.269 9.54534C131.527 8.64971 132.463 8.13186 133.355 8.4055C134.246 8.67915 134.73 9.63314 134.441 10.5195L129.015 27.1818C128.786 27.886 128.03 28.2698 127.322 28.0524C126.614 27.835 126.203 27.0928 126.408 26.3812L131.269 9.54534Z" fill="white" fill-opacity="0.24"/>
<path d="M136.186 11.1057C136.491 10.2248 137.453 9.7568 138.328 10.0768C139.204 10.3968 139.637 11.3749 139.303 12.2449L133.01 28.5996C132.744 29.2908 131.969 29.6345 131.273 29.3802C130.577 29.126 130.206 28.3632 130.449 27.6634L136.186 11.1057Z" fill="white" fill-opacity="0.24"/>
<path d="M141.145 12.975C141.497 12.1119 142.483 11.6964 143.34 12.0631C144.197 12.4298 144.577 13.4298 144.196 14.2806L137.031 30.2724C136.728 30.9483 135.935 31.2497 135.254 30.9583C134.574 30.6669 134.244 29.8853 134.524 29.1996L141.145 12.975Z" fill="white" fill-opacity="0.24"/>
<path d="M145.993 15.1075C146.391 14.2646 147.398 13.9028 148.234 14.3152C149.07 14.7275 149.396 15.7465 148.969 16.5755L140.954 32.1583C140.615 32.8169 139.807 33.0751 139.143 32.7475C138.478 32.4199 138.192 31.6216 138.508 30.952L145.993 15.1075Z" fill="white" fill-opacity="0.24"/>
<path d="M150.808 17.546C151.252 16.7262 152.277 16.4202 153.089 16.8778C153.901 17.3354 154.17 18.3708 153.699 19.1751L144.841 34.2945C144.466 34.9335 143.645 35.147 143 34.7834C142.355 34.4199 142.112 33.6071 142.465 32.9558L150.808 17.546Z" fill="white" fill-opacity="0.24"/>
<path d="M155.096 20.0091C155.58 19.2127 156.62 18.9586 157.408 19.4565C158.196 19.9543 158.413 21.0019 157.902 21.7815L148.294 36.4364C147.888 37.0558 147.057 37.2277 146.431 36.8321C145.805 36.4366 145.604 35.6126 145.988 34.9799L155.096 20.0091Z" fill="white" fill-opacity="0.24"/>
<path d="M159.375 22.7667C159.9 21.9965 160.951 21.7965 161.713 22.3345C162.474 22.8725 162.636 23.9299 162.086 24.682L151.732 38.8199C151.295 39.4174 150.456 39.5461 149.851 39.1187C149.246 38.6913 149.088 37.8579 149.505 37.246L159.375 22.7667Z" fill="white" fill-opacity="0.24"/>
<path d="M163.64 25.8442C164.206 25.1031 165.266 24.9597 165.997 25.5376C166.729 26.1155 166.834 27.1801 166.244 27.9017L155.149 41.4657C154.681 42.039 153.836 42.1226 153.255 41.6635C152.674 41.2043 152.56 40.3637 153.01 39.7749L163.64 25.8442Z" fill="white" fill-opacity="0.24"/>
<path d="M167.735 29.1457C168.339 28.4359 169.405 28.3493 170.105 28.9656C170.804 29.5818 170.853 30.6505 170.225 31.3395L158.421 44.2907C157.922 44.8381 157.074 44.8765 156.519 44.3869C155.963 43.8973 155.894 43.0519 156.374 42.488L167.735 29.1457Z" fill="white" fill-opacity="0.24"/>
<path d="M171.718 32.7293C172.36 32.0535 173.43 32.0251 174.095 32.6786C174.759 33.332 174.75 34.4018 174.085 35.0555L161.593 47.3444C161.065 47.8637 160.217 47.8559 159.689 47.3368C159.16 46.8177 159.138 45.9697 159.648 45.4328L171.718 32.7293Z" fill="white" fill-opacity="0.24"/>
<path d="M175.362 36.378C176.039 35.7368 177.108 35.7645 177.738 36.4519C178.367 37.1393 178.302 38.2071 177.604 38.8251L164.484 50.4421C163.93 50.933 163.083 50.8808 162.583 50.3346C162.083 49.7885 162.105 48.9405 162.642 48.4311L175.362 36.378Z" fill="white" fill-opacity="0.24"/>
<path d="M178.793 40.1932C179.502 39.5881 180.568 39.6717 181.161 40.391C181.754 41.1103 181.633 42.1732 180.904 42.7539L167.196 53.6706C166.617 54.132 165.774 54.0356 165.303 53.4641C164.832 52.8926 164.898 52.047 165.461 51.5663L178.793 40.1932Z" fill="white" fill-opacity="0.24"/>
<path d="M181.987 44.1395C182.727 43.5719 183.787 43.7104 184.342 44.4593C184.897 45.2083 184.721 46.2635 183.963 46.8058L169.71 57.0003C169.108 57.4311 168.271 57.2914 167.83 56.6963C167.389 56.1013 167.499 55.2602 168.086 54.8092L181.987 44.1395Z" fill="white" fill-opacity="0.24"/>
<path d="M185.018 48.3103C185.786 47.7822 186.838 47.9761 187.353 48.7532C187.868 49.5302 187.637 50.5747 186.852 51.0765L172.084 60.5098C171.46 60.9085 170.631 60.725 170.222 60.1077C169.813 59.4904 169.967 58.6561 170.577 58.2366L185.018 48.3103Z" fill="white" fill-opacity="0.24"/>
<path d="M187.589 52.2492C188.382 51.7585 189.423 52.0025 189.9 52.8033C190.378 53.604 190.097 54.6363 189.288 55.1L174.086 63.8161C173.444 64.1844 172.625 63.9616 172.246 63.3254C171.867 62.6892 172.06 61.8633 172.69 61.4734L187.589 52.2492Z" fill="white" fill-opacity="0.24"/>
<path d="M190.309 56.9247C191.127 56.4783 192.154 56.7792 192.586 57.605C193.019 58.4308 192.681 59.4461 191.848 59.8646L176.19 67.7314C175.528 68.0639 174.723 67.7964 174.38 67.1403C174.036 66.4842 174.275 65.6701 174.925 65.3155L190.309 56.9247Z" fill="white" fill-opacity="0.24"/>
<path d="M192.611 61.4155C193.451 61.0117 194.461 61.3649 194.85 62.2118C195.24 63.0587 194.851 64.0553 193.997 64.4305L177.956 71.4835C177.278 71.7816 176.488 71.4731 176.178 70.8003C175.869 70.1274 176.149 69.3267 176.816 69.0059L192.611 61.4155Z" fill="white" fill-opacity="0.24"/>
<path d="M194.856 66.443C195.717 66.0869 196.706 66.4961 197.047 67.3635C197.389 68.2309 196.944 69.2041 196.071 69.531L179.66 75.6748C178.967 75.9345 178.195 75.5823 177.924 74.8931C177.652 74.204 177.977 73.4202 178.661 73.1373L194.856 66.443Z" fill="white" fill-opacity="0.24"/>
<path d="M196.701 71.2615C197.58 70.951 198.546 71.4115 198.841 72.2956C199.137 73.1797 198.642 74.1284 197.753 74.409L181.042 79.6833C180.336 79.9063 179.584 79.514 179.349 78.8116C179.114 78.1092 179.479 77.3435 180.178 77.0969L196.701 71.2615Z" fill="white" fill-opacity="0.24"/>
<path d="M198.365 76.4237C199.26 76.1622 200.199 76.6753 200.445 77.5743C200.692 78.4734 200.145 79.3933 199.242 79.6244L182.266 83.9692C181.549 84.1528 180.819 83.7197 180.623 83.0054C180.428 82.2911 180.834 81.5467 181.545 81.339L198.365 76.4237Z" fill="white" fill-opacity="0.24"/>
<path d="M199.798 81.9089C200.706 81.6994 201.614 82.2657 201.808 83.1775C202.002 84.0892 201.404 84.9761 200.489 85.1548L183.291 88.5138C182.564 88.6558 181.86 88.1814 181.706 87.457C181.552 86.7326 182.001 86.0129 182.723 85.8465L199.798 81.9089Z" fill="white" fill-opacity="0.24"/>
</svg>
